<?xml version="1.0" standalone="no"?>
<!DOCTYPE svg PUBLIC "-//W3C//DTD SVG 20010904//EN"
 "http://www.w3.org/TR/2001/REC-SVG-20010904/DTD/svg10.dtd">
<svg version="1.0" xmlns="http://www.w3.org/2000/svg"
 width="599.000000pt" height="564.000000pt" viewBox="0 0 599.000000 564.000000"
 preserveAspectRatio="xMidYMid meet">
<metadata>
Created by potrace 1.15, written by Peter Selinger 2001-2017
</metadata>
<g transform="translate(0.000000,564.000000) scale(0.100000,-0.100000)"
fill="#000000" stroke="none">
<path d="M870 5635 c0 -2 182 -305 404 -672 l404 -668 614 -136 c337 -74 623
-141 636 -148 31 -17 62 -69 62 -106 0 -42 -34 -92 -74 -112 -34 -16 -41 -15
-296 41 -144 32 -263 56 -265 54 -2 -2 212 -121 474 -265 l476 -262 6 37 c4
20 12 120 19 222 15 229 19 246 74 271 22 10 49 19 58 19 10 0 86 -27 170 -61
602 -240 1181 -369 1411 -315 59 14 72 14 101 2 49 -20 76 -61 76 -112 0 -192
-405 -204 -1010 -29 -184 54 -488 154 -587 193 l-51 21 -6 -37 c-15 -106 -28
-334 -20 -341 5 -5 166 -95 357 -200 l348 -191 850 0 c779 0 851 1 845 16 -3
9 -193 326 -422 703 l-416 688 -1265 696 -1265 697 -854 0 c-470 0 -854 -2
-854 -5z"/>
<path d="M826 5588 c-8 -13 -197 -324 -420 -693 l-406 -670 0 -1410 0 -1410
422 -698 c232 -383 425 -694 429 -690 4 5 197 321 428 704 l421 696 -2 329 -3
329 -44 -217 c-24 -119 -49 -227 -55 -240 -15 -31 -73 -68 -106 -68 -41 0 -93
40 -107 82 -11 33 3 112 152 860 l165 823 0 361 0 362 -22 5 c-13 3 -171 38
-353 77 -181 40 -340 79 -353 87 -30 18 -62 71 -62 101 0 38 30 92 61 107 44
23 86 18 384 -49 154 -35 282 -62 283 -60 6 4 -782 1304 -790 1304 -4 0 -14
-10 -22 -22z"/>
<path d="M1711 3713 l1 -318 62 305 62 305 -45 12 c-89 22 -81 53 -80 -304z"/>
<path d="M2065 3928 c-3 -13 -84 -417 -180 -898 l-175 -875 0 -373 0 -373 23
12 c19 9 18 7 -5 -13 -14 -12 -216 -333 -447 -713 l-421 -690 863 -3 863 -2
1277 696 1277 697 419 686 c231 377 423 694 426 704 7 16 -41 17 -851 17
l-857 0 -169 -91 c-92 -50 -168 -94 -168 -98 0 -4 168 -44 373 -90 454 -101
442 -98 474 -135 22 -26 25 -37 21 -85 -4 -45 -10 -59 -37 -83 -23 -20 -42
-28 -69 -28 -21 0 -278 54 -572 119 l-534 120 -102 -55 c-56 -30 -106 -60
-111 -67 -5 -6 -24 -73 -42 -147 -73 -301 -233 -816 -289 -930 -35 -71 -83
-99 -142 -81 -22 6 -48 23 -59 37 -38 48 -36 81 9 199 86 224 241 747 227 761
-2 2 -240 -125 -528 -282 -564 -308 -589 -321 -574 -307 6 6 258 146 560 312
303 167 551 304 553 306 8 8 95 417 126 597 40 226 76 482 76 537 l0 36 -513
282 c-483 266 -517 283 -604 302 -114 26 -111 26 -118 -1z"/>
<path d="M3530 3200 c0 -18 -40 -303 -56 -394 -8 -48 -13 -90 -12 -92 6 -6
405 -94 427 -94 26 0 361 182 357 195 -2 9 -694 395 -708 395 -5 0 -8 -5 -8
-10z"/>
</g>
</svg>
