<?xml version="1.0" encoding="UTF-8" standalone="no"?>
<svg
   xmlns:dc="http://purl.org/dc/elements/1.1/"
   xmlns:cc="http://creativecommons.org/ns#"
   xmlns:rdf="http://www.w3.org/1999/02/22-rdf-syntax-ns#"
   xmlns:svg="http://www.w3.org/2000/svg"
   xmlns="http://www.w3.org/2000/svg"
   id="svg1624"
   version="1.1"
   viewBox="0 0 396.87499 396.87501"
   height="1500"
   width="1500">
  <defs
     id="defs1618" />
  <metadata
     id="metadata1621">
    <rdf:RDF>
      <cc:Work
         rdf:about="">
        <dc:format>image/svg+xml</dc:format>
        <dc:type
           rdf:resource="http://purl.org/dc/dcmitype/StillImage" />
        <dc:title></dc:title>
      </cc:Work>
    </rdf:RDF>
  </metadata>
  <g
     transform="translate(0,99.875017)"
     id="layer1">
    <g
       style="display:inline;fill:#0077ff;fill-opacity:1"
       transform="matrix(1.6732847,0,0,1.5951662,145.29369,19.208659)"
       id="g1249">
      <path
         d="M 113.14218,100.36963 142.28603,50.369633 H 83.998327 l -87.4315565,49.999997 -29.1438525,50 h 58.287704 z"
         style="fill:#0077ff;fill-opacity:1;stroke:none;stroke-width:2.00954986;stroke-linejoin:round;stroke-opacity:1"
         id="path1241" />
      <path
         d="M 25.4212,-51.350673 H -32.313827 L -3.4463145,-1.3506698 83.156227,48.649329 H 140.89126 L 112.02375,-1.3506698 Z"
         style="fill:#0077ff;fill-opacity:1;stroke:none;stroke-width:2;stroke-linejoin:round;stroke-opacity:1"
         id="path1243" />
      <path
         d="M -62.049924,99.708742 -33.182411,149.70874 -4.3148973,99.708742 V -0.29125486 L -33.182411,-50.291255 -62.049924,-0.29125486 Z"
         style="fill:#0077ff;fill-opacity:1;stroke:none;stroke-width:2;stroke-linejoin:round;stroke-opacity:1"
         id="path1245" />
      <path
         d="M -3.7095685,-0.29125486 V 99.708742 L 82.892972,49.708745 Z"
         style="fill:#0077ff;fill-opacity:1;stroke:none;stroke-width:2;stroke-linejoin:round;stroke-opacity:1"
         id="path1247" />
    </g>
    <path
       id="path23"
       d="m 180.23528,122.08614 c 0.32636,-0.14822 0.33474,-0.21544 0.33474,-2.68283 0,-2.46766 -0.008,-2.53472 -0.33474,-2.68285 -0.22629,-0.1026 0.2986,-0.15539 1.62015,-0.16256 l 1.95491,-0.0119 0.0607,0.58805 c 0.0695,0.67234 -0.0389,0.76211 -0.25328,0.20992 -0.12997,-0.33452 -0.27115,-0.38391 -1.22544,-0.42738 l -1.07855,-0.0494 v 1.09942 1.0994 h 0.87445 c 0.73851,0 0.91078,-0.059 1.10795,-0.37791 0.22345,-0.36161 0.2336,-0.33452 0.23536,0.62994 0.002,0.98764 -0.004,0.99871 -0.22012,0.54606 -0.20416,-0.42499 -0.29363,-0.46202 -1.11634,-0.46202 h -0.89437 l 0.0438,1.21803 0.0438,1.21802 1.04138,0.0522 c 1.01762,0.051 1.05102,0.0398 1.46558,-0.504 0.44193,-0.57946 0.44142,-0.58118 0.16079,0.53587 -0.0792,0.31577 -0.20751,0.3353 -2.11993,0.32535 -1.36966,-0.008 -1.92602,-0.0602 -1.70079,-0.16256 z m 5.39282,0.0869 c 0,-0.16117 2.08438,-4.78587 2.15713,-4.78587 0.0727,0 2.15712,4.62446 2.15712,4.78587 0,0.0474 -0.0664,0.0865 -0.14758,0.0865 -0.0812,0 -0.55862,-0.92593 -1.06096,-2.0576 l -0.91334,-2.05755 -0.90741,2.05755 c -0.49908,1.13167 -0.99237,2.0576 -1.09619,2.0576 -0.10394,0 -0.18873,-0.0398 -0.18873,-0.0865 z m 6.21103,-0.0869 c 0.32637,-0.14822 0.33476,-0.21544 0.33476,-2.68283 0,-2.46766 -0.008,-2.53472 -0.33476,-2.68285 -0.22627,-0.1026 0.29862,-0.15539 1.62018,-0.16256 l 1.95489,-0.0119 0.0607,0.58805 c 0.0695,0.67234 -0.0389,0.76211 -0.25328,0.20992 -0.12996,-0.33452 -0.27117,-0.38391 -1.22541,-0.42738 l -1.07857,-0.0494 v 1.09942 1.0994 h 0.87444 c 0.73851,0 0.91078,-0.059 1.10795,-0.37791 0.22346,-0.36161 0.2336,-0.33452 0.23536,0.62994 0.002,0.98764 -0.004,0.99871 -0.22008,0.54606 -0.20416,-0.42499 -0.29365,-0.46202 -1.11633,-0.46202 h -0.89438 l 0.0438,1.21803 0.0438,1.21802 1.0414,0.0522 c 1.01762,0.051 1.05102,0.0398 1.46556,-0.504 0.44197,-0.57946 0.44145,-0.58118 0.16079,0.53587 -0.0793,0.31577 -0.20753,0.3353 -2.11993,0.32535 -1.36967,-0.008 -1.92602,-0.0602 -1.70079,-0.16256 z m 11.71545,0.004 c 0.0507,-0.0922 0.28882,-0.16795 0.52945,-0.16795 h 0.43755 v -2.35209 c 0,-1.34684 -0.0593,-2.35204 -0.13916,-2.35204 -0.0766,0 -0.31078,0.0735 -0.52068,0.16356 -0.63497,0.27278 -0.42824,-0.0502 0.34709,-0.54189 0.40066,-0.25407 0.76879,-0.46202 0.81809,-0.46202 0.0492,0 0.0898,1.24746 0.0898,2.77208 0,2.76202 0.001,2.77215 0.33474,2.7747 0.18413,0.001 0.43515,0.0761 0.55787,0.16575 0.15293,0.11156 -0.21262,0.16376 -1.16172,0.16575 -0.88591,0.002 -1.35175,-0.0582 -1.29293,-0.16575 z m 4.43859,-0.0952 c -0.0852,-0.25088 -0.0222,-1.15169 0.18988,-2.71873 0.0846,-0.62445 0.0616,-0.71487 -0.18318,-0.72077 -0.22959,-0.004 -0.21204,-0.0482 0.0978,-0.23893 0.20774,-0.1279 0.47009,-0.42706 0.58303,-0.66531 0.27883,-0.58841 0.49838,-0.54731 0.37815,0.0709 -0.089,0.45836 -0.0632,0.50402 0.28574,0.50402 0.51315,0 0.49242,0.29947 -0.0253,0.36677 -0.38912,0.0506 -0.41923,0.12033 -0.61583,1.42499 -0.24395,1.61887 -0.17265,1.98502 0.35685,1.83491 0.20384,-0.0578 0.37056,-0.0359 0.37056,0.0482 0,0.4112 -1.30105,0.49609 -1.43774,0.094 z m 6.1293,-0.7383 -0.42218,-0.49767 -0.45282,0.43033 c -0.36449,0.34645 -0.55607,0.41163 -0.98177,0.33491 -0.70913,-0.1281 -1.04961,-0.63417 -1.04961,-1.56006 0,-0.56703 0.0873,-0.84359 0.36516,-1.15743 0.464,-0.52402 0.83624,-0.52139 1.39525,0.0119 l 0.44431,0.4222 0.44827,-0.50623 c 1.23162,-1.3909 3.00441,0.38587 2.18041,2.18526 -0.43979,0.96042 -1.27515,1.10737 -1.92702,0.33888 z m 1.40201,-0.002 c 0.34091,-0.20594 0.60519,-1.0319 0.49474,-1.54612 -0.12039,-0.56107 -0.637,-1.1455 -1.01243,-1.1455 -0.58963,0 -1.38766,1.43623 -1.11624,2.00894 0.34079,0.71911 1.06975,1.02367 1.63393,0.68268 z m -2.56547,-0.65842 c 0.41023,-0.68911 0.41992,-0.87624 0.0704,-1.36353 -0.57338,-0.79968 -1.66465,-0.23536 -1.66465,0.86101 0,0.59434 0.49962,1.19666 0.93384,1.12573 0.1761,-0.0279 0.4734,-0.30901 0.66029,-0.62321 z m -15.57828,0.23495 c 0,-0.21266 0.34713,-0.25208 2.2315,-0.25208 1.88439,0 2.23151,0.0398 2.23151,0.25208 0,0.21265 -0.3471,0.25205 -2.23151,0.25205 -1.88439,0 -2.2315,-0.0398 -2.2315,-0.25205 z m 0,-2.18406 c 0,-0.21267 0.34713,-0.25209 2.2315,-0.25209 1.88439,0 2.23151,0.0398 2.23151,0.25209 0,0.21264 -0.3471,0.25206 -2.23151,0.25206 -1.88439,0 -2.2315,-0.0398 -2.2315,-0.25206 z m -5.50439,-5.37683 c 0,-0.13886 1.36676,-2.16751 3.03724,-4.50794 l 3.03723,-4.25532 -3.03723,-4.18362 c -1.67048,-2.301033 -3.03724,-4.279366 -3.03724,-4.39639 0,-0.167945 1.21767,-0.212651 5.79122,-0.212651 h 5.7912 l 0.0835,0.882063 c 0.15562,1.647183 0.16155,2.393934 0.0203,2.445951 -0.0777,0.02789 -0.22619,-0.276363 -0.32975,-0.677182 -0.10355,-0.400957 -0.39559,-0.953505 -0.64902,-1.227916 l -0.46084,-0.498856 -3.88262,-0.0502 c -3.1657,-0.04104 -3.85503,-0.01195 -3.7331,0.168145 0.0823,0.119933 1.23438,1.711154 2.56027,3.535966 l 2.41069,3.31789 -2.8518,3.99038 -2.85181,3.99041 3.99771,0.0466 c 3.32561,0.0398 4.10029,0.002 4.60759,-0.21425 0.72524,-0.31021 1.15209,-0.78739 1.46779,-1.64078 0.21503,-0.5812 0.5258,-0.85185 0.5258,-0.45792 0,0.22142 -0.42744,3.33033 -0.52527,3.82034 l -0.0756,0.3779 h -5.94789 c -5.19415,0 -5.94785,-0.0319 -5.94785,-0.25245 z m -34.40451,-1.1248 c -1.46032,-2.03579 -2.11835,-5.36174 -1.76351,-8.91356 0.26043,-2.60674 0.71099,-4.004576 1.76292,-5.46939 0.55946,-0.779045 0.88721,-0.83678 0.38362,-0.06774 -1.01396,1.548826 -1.38482,3.13168 -1.48995,6.35911 -0.12441,3.81846 0.26576,6.18293 1.30036,7.88115 0.60911,0.99981 0.47641,1.14404 -0.19338,0.21026 z m 7.92389,0.64255 c 0,-0.0703 0.16538,-0.37312 0.36746,-0.67224 0.99968,-1.48017 1.43187,-3.64107 1.43321,-7.1661 0.001,-3.46695 -0.44296,-5.661424 -1.44713,-7.148251 -0.57456,-0.850686 -0.33539,-0.88549 0.30239,-0.04423 1.28757,1.698722 1.78723,3.735471 1.78616,7.280531 -10e-4,2.79521 -0.19562,3.96864 -0.94819,5.71225 -0.37776,0.87513 -1.4939,2.39768 -1.4939,2.03782 z m -17.19471,-0.56779 c 0.17419,-0.93617 1.2766,-8.31245 1.2766,-8.54142 0,-0.15141 -0.16136,-0.23694 -0.44631,-0.23694 -0.5844,0 -0.57539,-0.31541 0.0115,-0.44813 0.47445,-0.10718 0.57224,-0.27557 0.86252,-1.48396 0.34408,-1.43252 1.16263,-2.268062 2.22189,-2.268062 0.76358,0 0.8799,0.11794 0.78289,0.791572 -0.10164,0.70713 -0.45847,0.967 -0.45847,0.3341 0,-0.2871 -0.10164,-0.444446 -0.33143,-0.512262 -0.60069,-0.177708 -0.96123,0.283532 -1.21755,1.556082 -0.12997,0.64516 -0.23626,1.21482 -0.23626,1.26586 0,0.051 0.25661,0.0928 0.57027,0.0928 0.64068,0 0.78445,0.094 0.66807,0.43646 -0.0513,0.15062 -0.30639,0.23574 -0.70711,0.23574 h -0.62706 l -0.48923,3.23413 c -0.26909,1.77877 -0.58955,3.85785 -0.71211,4.62016 l -0.22288,1.38608 h -0.5163 c -0.4849,0 -0.51109,-0.0279 -0.43037,-0.46206 z m 12.29618,-3.00473 c -0.16959,-0.24331 -0.30833,-0.55643 -0.30833,-0.69537 0,-0.26202 0.54093,-4.03464 0.67395,-4.70019 0.0586,-0.2923 0.01,-0.37791 -0.21607,-0.37791 -0.48946,0 -0.50766,-0.33412 -0.0287,-0.52254 0.27678,-0.10918 0.61242,-0.46509 0.86658,-0.91942 0.55044,-0.98397 0.80975,-0.97875 0.68929,0.0159 l -0.0917,0.75602 h 0.62622 c 0.51601,0 0.6175,0.0518 0.5768,0.29389 -0.036,0.21305 -0.2192,0.30782 -0.66749,0.34486 -0.33993,0.0279 -0.64973,0.14423 -0.68837,0.25763 -0.0387,0.11356 -0.22346,1.25408 -0.41066,2.53405 -0.32373,2.21336 -0.3276,2.33779 -0.0785,2.54343 0.15715,0.1299 0.46506,0.1789 0.76969,0.12312 0.67817,-0.12431 0.67304,0.2262 -0.008,0.54749 -0.79771,0.37631 -1.34869,0.3122 -1.70481,-0.19922 z m 9.80784,-2.1609 v -0.42004 h 3.71921 3.71919 v 0.42004 0.42 h -3.71919 -3.71921 z m 0,-3.52816 v -0.42 h 3.71921 3.71919 v 0.42 0.42005 h -3.71919 -3.71921 z m 28.19686,-9.989955 -0.42218,-0.497662 -0.45284,0.430324 c -0.36447,0.34645 -0.55606,0.411636 -0.98175,0.334895 -0.70915,-0.1283 -1.04959,-0.634169 -1.04959,-1.560062 0,-0.567071 0.0873,-0.843593 0.36513,-1.157471 0.46401,-0.523978 0.83623,-0.521348 1.39526,0.01195 l 0.44431,0.422235 0.44827,-0.506228 c 1.23163,-1.390901 3.00439,0.385877 2.18042,2.185247 -0.4398,0.960438 -1.27516,1.107405 -1.92703,0.338879 z m 1.40201,-0.0016 c 0.34091,-0.205878 0.60519,-1.03194 0.49474,-1.546137 -0.12059,-0.561134 -0.637,-1.145477 -1.01243,-1.145477 -0.58963,0 -1.38764,1.436225 -1.11624,2.008953 0.34077,0.719059 1.06974,1.023652 1.63393,0.682661 z m -2.56547,-0.658415 c 0.41023,-0.689115 0.41992,-0.876286 0.0704,-1.363588 -0.57334,-0.799624 -1.66463,-0.235343 -1.66463,0.861026 0,0.594384 0.49964,1.196658 0.93382,1.125774 0.17629,-0.02789 0.4734,-0.309016 0.66031,-0.623212 z"
       style="display:inline;fill:#000000;stroke-width:0.15809441" />
    <g
       id="text1059"
       style="font-style:normal;font-weight:normal;font-size:36.53248978px;line-height:1.25;font-family:sans-serif;letter-spacing:0px;word-spacing:0px;display:inline;opacity:0.98699999;fill:#f2f2f2;fill-opacity:1;stroke:none;stroke-width:0.9133122"
       transform="matrix(6.5324489,1.4135037,-1.4472975,7.2457292,-18.847124,-799.58996)"
       aria-label="TF">
      <g
         id="text1366"
         style="font-style:normal;font-variant:normal;font-weight:normal;font-stretch:normal;font-size:30.14677811px;line-height:1.25;font-family:Chilanka;-inkscape-font-specification:'Chilanka, Normal';font-variant-ligatures:normal;font-variant-caps:normal;font-variant-numeric:normal;font-feature-settings:normal;text-align:start;letter-spacing:0px;word-spacing:0px;writing-mode:lr-tb;text-anchor:start;fill:#f2f2f2;fill-opacity:1;stroke:none;stroke-width:0.68832785"
         transform="scale(1.0323257,0.96868653)"
         aria-label="TF
">
        <path
           id="path1668"
           style="font-style:normal;font-variant:normal;font-weight:normal;font-stretch:normal;font-size:30.14677811px;font-family:Chilanka;-inkscape-font-specification:'Chilanka, Normal';font-variant-ligatures:normal;font-variant-caps:normal;font-variant-numeric:normal;font-feature-settings:normal;text-align:start;writing-mode:lr-tb;text-anchor:start;fill:#f2f2f2;fill-opacity:1;stroke:none;stroke-width:0.68832785"
           d="m 39.330413,108.14736 q -0.279682,-0.2944 -0.279682,-0.67712 0,-0.39745 0.279682,-0.67713 0.294402,-0.27968 0.677125,-0.27968 l 15.603313,0.0589 q 0.382722,0 0.662404,0.2944 0.294402,0.27968 0.279682,0.67713 0,0.38272 -0.279682,0.6624 -0.279682,0.27968 -0.677125,0.27968 -3.297303,-0.0147 -6.609327,-0.0147 v 18.76814 q 0,0.39744 -0.294403,0.67712 -0.279682,0.27969 -0.677124,0.27969 -0.382723,0 -0.662405,-0.27969 -0.279682,-0.27968 -0.279682,-0.67712 v -18.76814 -0.0147 l -7.065651,-0.0294 q -0.397443,0 -0.677125,-0.27968 z" />
        <path
           id="path1670"
           style="font-style:normal;font-variant:normal;font-weight:normal;font-stretch:normal;font-size:30.14677811px;font-family:Chilanka;-inkscape-font-specification:'Chilanka, Normal';font-variant-ligatures:normal;font-variant-caps:normal;font-variant-numeric:normal;font-feature-settings:normal;text-align:start;writing-mode:lr-tb;text-anchor:start;fill:#f2f2f2;fill-opacity:1;stroke:none;stroke-width:0.68832785"
           d="m 61.704974,108.63312 q 0.471043,3.41507 0.574084,7.22758 h 0.01472 l 10.701518,0.0736 q 0.397442,0 0.677125,0.27968 0.279682,0.27968 0.264961,0.67712 0,0.39745 -0.279682,0.67713 -0.279682,0.27968 -0.677124,0.27968 l -10.686798,-0.0736 q -0.01472,2.7085 -0.279682,5.4906 -0.250242,2.7821 -0.441603,3.85667 l -0.191361,1.03041 q -0.0736,0.38272 -0.397443,0.60352 -0.323843,0.23552 -0.721286,0.16192 -0.382722,-0.0736 -0.618244,-0.39744 -0.220802,-0.32384 -0.147201,-0.70657 l 0.191361,-1.0304 q 0.412163,-2.35522 0.588805,-6.02053 0.323842,-7.00677 -0.647685,-13.14505 -0.103041,-0.58881 0.309122,-0.86849 0.412163,-0.2944 0.794886,-0.23552 l 1.104008,0.19136 q 2.561298,0.4416 5.358119,0.60352 5.225637,0.30913 6.830129,-0.61824 0.338563,-0.19136 0.721285,-0.0883 0.397443,0.10304 0.588805,0.4416 0.191361,0.33857 0.08832,0.72129 -0.279682,1.08929 -3.886108,1.47201 -2.355217,0.25024 -7.095091,-0.25024 -1.633932,-0.17664 -2.73794,-0.35329 z" />
      </g>
    </g>
  </g>
</svg>
